<?xml version="1.0" encoding="utf-8"?>
<svg version="1.2" baseProfile="tiny" id="Layer_1" xmlns="http://www.w3.org/2000/svg" xmlns:xlink="http://www.w3.org/1999/xlink"
	 x="0px" y="0px" viewBox="0 0 360 89" xml:space="preserve">
   <style>
        @media (prefers-color-scheme: dark) {path { fill: #ffffff; }}
        @media (prefers-color-scheme: light) {path { fill: #1C0618; }}
   </style>
<g>
	<path d="M9.6,63.7c0.1-2.4,0.1-4.8,0-7.3l0.2-4.9c0-0.7,0-1.6,0-2.6c0-1,0-3.3-0.1-7.1c-0.1-3.7-0.1-6.8,0-9.2
		c0.1-2.4,0.2-4.7,0.5-7c0-1.8-0.1-3.7-0.3-5.4c0-0.1-0.1-0.5-0.2-1.1c-0.1-0.6-0.2-1.1-0.2-1.5c0-0.4,0.1-0.7,0.2-0.9
		c0.6-0.3,1.9-0.5,3.9-0.5c2-0.1,4.2,0,6.7,0c2.5,0.1,3.9,0.1,4.1,0.1c2.2-0.2,4.3-0.2,6.4-0.1c2.1,0.1,3.1,0.6,3.2,1.4
		c0.4,2.4,0.5,4.7,0.3,7.1c0,0.1,0,0.4,0,1.1c0,0.7,0.1,1.5,0.1,2.4c0.1,1,0.1,1.8,0.1,2.5c0,0.9,0.3,0.7,0.8-0.8
		c0.5-1.3,1-3,1.6-5.2c0.4-1.7,0.7-3.2,0.8-4.5c0.1-1.3,0.2-2.2,0.3-2.7c0-0.5,0.1-0.8,0.2-0.9c0.3-0.3,1.9-0.4,4.9-0.5
		c3,0,6.3,0,9.9,0.1c3.6,0.1,5.7,0.1,6.5,0c3.3-0.2,5.2-0.1,5.4,0.2c0.4,0.3,0,2.9-1.3,7.8c-1.2,4.9-2.4,8.7-3.5,11.3
		c-1.2,2.5-2.1,5.2-2.9,7.9c0,0.4,0,0.8,0.1,1.2c0.1,0.4,0.1,0.8,0.3,1.2c0.1,0.4,0.2,0.8,0.3,1.2c0.1,0.4,0.2,0.8,0.4,1.2
		s0.3,0.8,0.4,1.2c0.3,1.5,1.2,3.9,2.7,7.3c1.4,3.4,2.3,6,2.6,7.8c0.1,0.2,0.2,0.9,0.5,1.9c0.3,1,0.5,2,0.6,2.8
		c0.1,0.8,0.2,1.8,0.3,2.8c0.1,1-0.1,1.6-0.4,1.8c-0.6,0.5-1.5,0.8-2.9,0.9c-1.3,0.1-2.8,0.1-4.5,0c-1.7-0.1-2.8-0.2-3.2-0.2
		c-0.1,0.1-0.8,0.1-2.1,0.2c-1.4,0.1-2.6,0.1-3.7,0.2c-1.1,0-2.3,0-3.8,0c-1.4,0-2.6-0.1-3.6-0.2c-1-0.1-1.7-0.3-2-0.5
		c-0.8-0.6-1.3-2.2-1.6-4.8c-0.3-2.5-1.1-4.3-2.2-5.4c-0.3-0.3-0.5-0.3-0.6,0c0,0.5,0,2.3,0,5.3c0,0.2,0,0.6,0.1,1
		c0.1,0.5,0.1,0.9,0.1,1.3c0,0.4,0,0.8,0,1.2c0,0.4-0.1,0.8-0.3,1.1c-0.2,0.3-0.5,0.5-0.8,0.6c-0.6,0.3-1.9,0.4-3.9,0.2
		c-2-0.1-3.3-0.2-4,0c-1.7,0.1-3.2,0.2-4.6,0.2s-3.3,0-5.8-0.1s-4-0.1-4.6-0.1c-0.4,0-0.7-0.3-1-0.8c-0.3-0.5-0.4-1.3-0.4-2.3
		c0-1,0-1.9,0-2.7c0-0.8,0-1.8,0.1-2.9C9.6,64.5,9.6,63.8,9.6,63.7z"/>
	<path d="M119.3,66.3c0.1,0.2,0.6,1,1.6,2.4c1,1.4,1.7,2.5,2.2,3.6c0.5,1,0.5,1.6,0,1.7c-1.3,0.2-2.9,0.3-4.7,0.3
		c-1.8,0.1-4.1,0-6.9,0c-2.8-0.1-4.4-0.1-4.8-0.1c-0.2,0-0.6,0-1.3,0c-0.7,0-1.3,0.1-2,0.1c-0.7,0-1.4,0-2.2,0
		c-0.8,0-1.4-0.1-1.9-0.2c-0.5-0.1-0.8-0.3-1-0.5c-0.3-0.6-0.7-1.6-1.2-3c-0.5-1.4-0.9-2.4-1.3-3.2c-0.6-1-1.4-1.9-2.2-2.9
		c-0.1,0.3-0.2,0.8-0.2,1.5c0,0.6,0,1.3,0,2.1c0,0.8,0.1,1.5,0.1,2.2c0.1,0.7,0.1,1.4,0.1,2.1c0,0.7,0,1.1,0,1.3
		c-0.5,0.3-1.2,0.6-2.2,0.7c-1,0.1-1.9,0.1-2.8,0.1c-0.9-0.1-1.6-0.1-2.3,0c-1.3,0.2-3.6,0.2-7.1,0.1c-3.5-0.1-5.8-0.1-7.1-0.1
		l-4.6-0.7c-0.1-7.7,0-21.6,0.3-41.7c0-0.7,0-1.5,0.1-2.5c0.1-1,0.2-1.9,0.2-2.8c0.1-0.9,0.1-1.7,0-2.5c0-0.3,0-0.8-0.1-1.6
		c-0.1-0.8-0.1-1.4-0.1-1.9c0-0.5,0.1-1,0.3-1.6c0.2-0.6,0.5-1.1,0.9-1.5c0.7-0.5,1.6-0.9,2.7-1.3c1.1-0.3,2-0.5,2.5-0.6
		c0.5-0.1,1.5-0.1,3-0.2c3.5-0.3,6.9-0.5,10.4-0.5c3.5,0,6.9,0.2,10.3,0.5c1.5,0.1,3.1,0.1,4.7,0.2c1.6,0.1,3.2,0.1,4.5,0.2
		c1.4,0.1,2.9,0.5,4.5,1.3c1.6,0.8,3.2,2,4.7,3.6c4.4,4.6,6.6,10,6.7,16.3c0.2,6.5-0.9,11.5-3.4,15c-1.5,2.1-3.3,4.1-5.3,5.8
		c0.2,0.7,0.9,2,2.1,3.7C118,63.7,118.8,65.1,119.3,66.3z M99.8,40c1.3-1.8,0.8-3.1-1.6-3.8c-0.1-0.1-0.3-0.1-0.9-0.1l-3.7,0.1
		c0,0.1,0,0.3,0,0.6c0,0.4,0,0.7,0,1.1c0,0.3,0,0.7,0,1.1c0,0.4,0,0.7,0.1,1c0.1,0.3,0.1,0.5,0.2,0.6c0.2,0.3,0.5,0.5,0.9,0.6
		s0.8,0.1,1.3,0c0.5-0.1,0.8-0.1,0.9-0.1c0.1,0,0.2,0,0.4,0c0.2,0,0.3,0,0.4,0c0.1,0,0.2,0,0.3,0c0.2,0,0.3,0,0.3,0
		c0.1,0,0.2-0.1,0.3-0.1c0.1,0,0.3-0.1,0.3-0.1c0.1-0.1,0.2-0.1,0.3-0.2c0.1-0.1,0.2-0.2,0.3-0.3C99.6,40.3,99.7,40.2,99.8,40z"/>
	<path d="M181.7,58.1c3.2,9.5,4.7,14.5,4.4,14.9c-0.5,0.7-3,1.2-7.5,1.5c-4.5,0.3-8.9,0.4-13.2,0.3
		c-4.3-0.1-6.5-0.4-6.7-0.7c-0.4-1.2-0.7-2.2-0.8-3.3c-0.1-1-0.3-1.8-0.6-2.4c-0.2-0.6-1.2-0.9-2.8-0.8s-2.5,0.4-2.6,0.8
		c-0.1,0.5-0.1,1-0.2,1.5c-0.1,0.5-0.1,0.8-0.2,1c0,0.2-0.1,0.4-0.2,0.7c-0.1,0.3-0.2,0.6-0.3,0.9c-0.1,0.3-0.3,0.7-0.6,1.3
		c-0.3,0.7-4.7,1.1-13.3,1.1c-8.6,0.1-13-0.2-13.4-0.8c-0.3-0.7-0.4-1.4-0.3-2.2c1.9-8.1,3.9-15.8,6.1-23.1c0.3-1.2,0.9-3.2,1.7-6.1
		c0.8-2.9,1.4-4.9,1.6-5.9c0.1-0.3,0.3-0.9,0.4-1.6c0.9-2.9,1.5-5,1.9-6.4c0.4-1.4,1-3,1.6-4.9c0.7-1.8,1.3-3.2,1.8-4.2s1-1.6,1.6-2
		c1.2-1,4-1.6,8.4-1.8c4.5-0.2,8.7-0.2,12.7,0.1c4,0.3,6.2,0.6,6.7,0.9c0.3,0.1,0.6,0.6,1,1.6c0.3,1,0.9,2.4,1.6,4.4
		c0.7,2,1.5,3.8,2.3,5.6c2.2,4.6,4.4,12.6,6.7,24C180.4,54.3,181,56.2,181.7,58.1z M156.9,54.3c0.1-0.1,0.2-0.2,0.1-0.5
		c0-0.3-0.1-0.5-0.1-0.7c-0.1-0.2-0.1-0.5-0.2-0.8c-0.1-0.3-0.1-0.5-0.1-0.5c-0.2-2.7-0.8-5.3-1.9-7.8c-0.7,1.9-1.3,3.8-1.7,5.8
		c-0.3,1.6-0.6,3.1-0.8,4.8C154.9,55,156.4,54.9,156.9,54.3z"/>
	<path d="M189.7,74.2h-2.6c-0.1-1.3,0-6.5,0.2-15.6c0.2-11.8,0.4-21.2,0.7-28.4c0.1-1,0-2.7,0-5.1
		c-0.1-2.3-0.1-4,0-5.1c0-0.3,0-0.8-0.1-1.4c-0.1-0.6-0.1-1-0.1-1.3c0-0.3,0.1-0.6,0.3-0.9c0.2-0.3,0.6-0.4,1.1-0.3
		c0.9,0,2.6,0,5.1-0.1c2.4-0.1,4,0,4.8,0.1c1.7,0.1,3.7,0.1,6,0.1c2.3-0.1,3.7,0,4.3,0.1c0.9,0.3,2.2,1.9,4.1,4.7
		c1.8,2.8,3.1,4.5,3.9,5.1c0.2,0.2,0.3,0.1,0.3-0.5c0-0.3-0.1-1-0.3-2c-0.1-1.3-0.2-2.3-0.3-2.9l-0.2-4.3c0.5-0.2,1.1-0.4,1.9-0.4
		c0.8,0,1.9,0,3.1,0c1.2,0.1,1.9,0.1,1.9,0.1c0.7,0,3,0,6.9-0.1c3.8-0.1,6.1,0,6.7,0.2c0.1,0,0.2,0.2,0.3,0.5c0.1,0.3,0.1,1,0.1,1.8
		c0.2,0.7,0.3,1.6,0.3,2.5c0.1,0.9,0.1,1.7,0,2.3c0,0.6-0.1,1.5-0.2,2.6c-0.1,1.1-0.1,1.9-0.1,2.4c-0.2,3.7-0.3,9.2-0.3,16.4
		c0,7.3-0.1,12.6-0.1,16.1c-0.1,0.9-0.1,2.4,0,4.7c0.1,2.3,0.1,3.8,0.1,4.7c0,0.1,0,0.3,0,0.7s0,0.6,0,0.9c0,0.2,0,0.5-0.1,0.8
		c-0.1,0.3-0.2,0.5-0.3,0.6c-0.5,0.4-1,0.7-1.6,0.9c-0.6,0.2-1,0.3-1.3,0.3c-0.3,0-0.9,0-1.7,0c-0.8,0-1.4,0-1.6,0
		c-1.2,0.1-3.1,0-5.7-0.1c-2.6-0.1-4.5-0.1-5.7-0.1c-1.2,0.2-2.4,0.1-3.6-0.3c-0.3-0.3-0.7-0.9-1.4-1.8c-0.6-0.9-1.3-1.9-1.9-2.9
		c-0.7-1-1.3-2-1.9-3c-0.6-1-1.1-1.8-1.5-2.3c-0.4-0.6-0.6-0.8-0.7-0.8c-0.2,1.7-0.1,3.5,0.2,5.2c0.2,3.4,0.3,5.3,0.2,5.6
		c-0.1,0.3-0.5,0.4-1.1,0.5c-0.6,0-1.3,0-2,0c-0.7-0.1-1.2-0.1-1.5,0c-0.6,0.1-1.3,0.1-1.9,0.2c-0.7,0.1-1.4,0.1-2.2,0.1
		c-0.8,0-1.5,0-1.9,0c-0.5,0-1.2,0-2.2-0.1c-1-0.1-1.6-0.1-2-0.1s-1.1,0-2.2-0.1C190.6,74.3,189.9,74.3,189.7,74.2z"/>
	<path d="M240.2,16.4c0.3-0.5,3.3-0.8,9.1-0.9c5.8-0.1,11.8-0.1,18.2,0c6.4,0.2,11.1,0.4,14.3,0.6
		c1.2,0.1,3,0.1,5.2-0.2c2.3-0.2,4-0.3,5.3-0.2c0.1,0,0.4,0,0.8,0c0.4,0,0.7,0.1,0.9,0.1c0.2,0,0.4,0.1,0.8,0.1
		c0.4,0.1,0.7,0.1,0.9,0.2c0.2,0.1,0.5,0.2,0.7,0.3c0.3,0.1,0.5,0.3,0.6,0.4c0.2,0.3,0.3,1,0.3,2.2c0,0.8,0.1,3.8,0.4,8.9
		c0.3,5.1,0.4,7.8,0.4,8.1c0,0.6,0,1.4,0,2.2s0,1.4,0,1.7c0,0.3,0,0.7,0,1.2c-0.1,0.5-0.1,0.8-0.3,1c-0.1,0.1-0.3,0.3-0.5,0.6
		c-0.2,0.2-0.5,0.4-0.9,0.5c-0.3,0.1-0.8,0.2-1.3,0.3c-0.2,0.1-1.2,0.1-2.9,0.1c-1.7,0-3.4,0.1-4.9,0.3c-1.6,0.2-2.4,0.4-2.5,0.8
		c-0.1,0.2-0.2,0.7-0.2,1.6s0,2.1,0,3.8c0,1.7,0,3.2,0,4.4c0,1-0.1,2.7-0.2,5c-0.1,2.3-0.2,3.8-0.2,4.5c0.1,0.3,0.1,0.9,0.2,1.8
		c0.1,0.9,0.1,1.7,0.1,2.4c0,0.7,0,1.5-0.1,2.3c-0.1,0.8-0.2,1.5-0.5,2.1c-0.3,0.6-0.7,1-1.2,1.3c-0.9,0.4-5.1,0.6-12.8,0.7
		c-7.7,0.1-12.2-0.3-13.7-1.2c-0.6-0.5-0.9-1.7-0.9-3.5c0.1-1.8,0.1-3.1,0-3.8c-0.3-0.7-0.5-2.2-0.5-4.3c-0.1-2.1,0-4.2,0-6.2
		c0.1-2,0.2-4.2,0.3-6.5c0.1-2.3,0.2-3.7,0.2-4.1c0-0.2-0.1-0.4-0.4-0.5c-0.3-0.1-0.6-0.2-1-0.2c-0.4,0-0.8,0-1.2,0
		c-0.4,0-0.8,0-1.2,0c-0.4,0-0.6,0-0.7,0c-0.3,0-1,0-1.9,0c-1,0-1.7,0-2.1,0c-0.5,0-1.1-0.1-1.8-0.1c-0.7-0.1-1.4-0.2-1.9-0.3
		c-0.5-0.1-1.1-0.3-1.7-0.6c-0.5-0.3-0.9-0.9-1-1.8c-0.2-0.9-0.2-2.2-0.1-3.7c0.1-1.6,0.1-2.4,0-2.5c-0.1-2-0.1-5.1,0-9.5
		C240.3,21.5,240.3,18.4,240.2,16.4z"/>
	<path d="M300.9,16l10.4,0.1c0.7,0,6.4-0.1,17-0.3c10.6-0.2,16.2-0.2,16.8-0.1c0.1,0.1,0.5,0.1,1.3,0
		c0.7-0.1,1.4-0.1,2,0c0.6,0,1,0.1,1,0.3c0.4,0.8,0.6,2.1,0.7,3.9c0.1,1.8,0,4.2-0.1,7.1c-0.1,2.9-0.2,5-0.2,6.1c0,1-0.3,2-0.9,3.1
		c-0.6,1.1-1.2,2-1.9,2.7c-0.7,0.7-1.4,1.4-2,2.1c-0.7,0.7-1,1.1-1.1,1.1c-0.7,0.9-1.8,2.3-3.4,4.1c-1.6,1.8-2.8,3.3-3.7,4.5
		c-0.9,1.2-1.2,1.9-0.8,2.2c0.2,0.2,0.5,0.3,0.9,0.4c0.4,0.1,0.8,0.1,1.3,0.1c0.4,0,0.8,0,1.3,0c0.4,0,0.9,0,1.4-0.1
		c0.9,0.1,1.6,0.1,2.2,0.1c0.6,0,1.2,0,1.6,0c0.4,0,1-0.1,1.8-0.1c0.8-0.1,1.6-0.1,2.4-0.2c0.1,0,0.2,0.1,0.3,0.4
		c0.1,0.3,0.1,0.6,0.1,1c0,0.4,0,0.7,0,1.1c0,0.4-0.1,0.7-0.1,1c0,0.3,0,0.5,0,0.6c0,1.7,0.1,5,0.4,10c0.2,3.2,0.2,5.4,0.1,6.8
		c-1.4,0.2-2.9,0.2-4.3,0.2c-2.8,0.4-5.6,0.5-8.4,0.3c-2-0.3-6.6-0.4-13.6-0.3c-7.1,0.2-11.6,0.2-13.7,0.2c-0.5,0-1.4,0-2.6,0.1
		c-1.2,0.1-2.4,0.1-3.5,0.1s-2.1-0.1-2.9-0.3c-0.8-0.2-1.2-2.1-1.2-5.7c-0.1-3.6,0-5.8,0.3-6.6c0.1-0.7,0.1-1.5,0.1-2.4
		c0-0.9,0-1.8,0-2.7c0-0.9,0.1-1.7,0.2-2.4c0.1-0.5,1-2,2.7-4.6c1.8-2.6,3.2-4.3,4.4-5c2.9-2,4.9-4,6.1-5.9c0.7-1,0.6-1.6-0.3-1.6
		c-1.7,0-3.4,0.1-5.2,0.2c-1.8,0.1-3.2,0.2-4.1,0.1c-1,0-1.8-0.2-2.6-0.5c-0.4-4.1-0.5-8.2-0.2-12.3C300.6,22,300.7,19,300.9,16z"/>
</g>
</svg>
